# xmcd CD database file
#
# Track frame offsets:
#	183
#	19108
#	44520
#	88723
#	111135
#	151240
#	191595
#	206963
#	229898
#	253320
#
# Disc length: 3737 seconds
#
# Revision: 1
# Processed by: cddbd v1.5.2PL0 Copyright (c) Steve Scherf et al.
# Submitted via: CDex 1.51
#
DISCID=8a0e970a
DTITLE=Robyn Schulkowsky and Nils Peter Molvær - Hastening Westward
DYEAR=1995
DGENRE=Jazz
TTITLE0=Pier And Ocean I
TTITLE1=Pier And Ocean II
TTITLE2=Pier And Ocean III
TTITLE3=Hastening Westwards I
TTITLE4=Hastening Westwards II
TTITLE5=Hastening Westwards III
TTITLE6=Hastening Westwards IV
TTITLE7=Hastening Westwards V
TTITLE8=Hastening Westwards VI
TTITLE9=Hastening Westwards VII
EXTD=YEAR: 1995
EXTT0=
EXTT1=
EXTT2=
EXTT3=
EXTT4=
EXTT5=
EXTT6=
EXTT7=
EXTT8=
EXTT9=
PLAYORDER=
